# xmcd
#
# Track frame offsets: 
#        225
#        17885
#        34698
#        57193
#        75226
#        94169
#        111973
#        134122
#        153530
#        170621
#
# Disc length: 2515 seconds
#
# Revision: 0
# Processed by: cddbd v1.5.2PL0 Copyright (c) Steve Scherf et al.
# Submitted via: ExactAudioCopy v1.0b4
#
DISCID=8009d00a
DTITLE=Martin Nievera - Roads
DYEAR=1998
DGENRE=R&B
TTITLE0=How will I know
TTITLE1=Make me your VIP
TTITLE2=You're my everything
TTITLE3=Forever
TTITLE4=Till the day you said goodbye
TTITLE5=I'll be there for you
TTITLE6=Never said goodbye
TTITLE7=Alyssa's eyes
TTITLE8=Stay with me
TTITLE9=The road of our lives
EXTD=
EXTT0=
EXTT1=
EXTT2=
EXTT3=
EXTT4=
EXTT5=
EXTT6=
EXTT7=
EXTT8=
EXTT9=
PLAYORDER=
